<svg width="18" height="21" viewBox="0 0 18 21" fill="none" xmlns="http://www.w3.org/2000/svg">
<path d="M12.5889 4.16046C11.5889 3.31296 10.5589 2.43379 9.5164 1.39463L8.9222 0.804626L8.33887 1.39546C6.4622 3.27713 5.57553 6.16629 5.19053 7.89963C4.89584 7.44288 4.67717 6.94137 4.54303 6.41463L4.19053 5.05379L3.16553 6.01713C1.3697 7.70296 0.172202 9.37546 0.172202 12.0538C0.155432 13.9857 0.784632 15.8678 1.95988 17.4012C3.13512 18.9345 4.78901 20.0313 6.65887 20.5172C7.22226 20.6542 7.79729 20.7379 8.37637 20.7672C8.55742 20.7901 8.7397 20.802 8.9222 20.803C9.018 20.803 9.1114 20.7947 9.2047 20.7888C11.4748 20.7205 13.629 19.7703 15.2099 18.1397C16.7908 16.5091 17.6741 14.3266 17.6722 12.0555C17.6722 8.47713 15.3164 6.47713 12.5889 4.16046ZM9.0889 19.1222C9.0055 19.1222 8.9222 19.1305 8.83386 19.1297C8.0838 19.1067 7.37202 18.7931 6.84891 18.2551C6.32581 17.7171 6.03234 16.9967 6.03053 16.2463C6.03053 15.1897 6.5972 14.663 7.8797 13.5713C8.20303 13.2963 8.5547 12.9972 8.9247 12.6547C9.2489 12.9488 9.5639 13.2155 9.8547 13.463C11.143 14.5563 11.8155 15.1772 11.8155 16.2438C11.8141 16.9809 11.531 17.6896 11.0241 18.2247C10.5171 18.7598 9.8248 19.0809 9.0889 19.1222ZM13.2722 17.6463L13.2555 17.658C13.4051 17.2023 13.4816 16.7259 13.4822 16.2463C13.4822 14.3588 12.2439 13.3072 10.9339 12.1947C10.4697 11.8013 9.9905 11.3947 9.5122 10.9163L8.9222 10.3272L8.33303 10.9163C7.79303 11.4555 7.2647 11.9055 6.79886 12.3022C5.4922 13.4138 4.36303 14.3747 4.36303 16.2463C4.36481 16.7465 4.44928 17.2429 4.61303 17.7155C3.74558 17.0494 3.04384 16.1918 2.56261 15.2097C2.08138 14.2276 1.83368 13.1475 1.83887 12.0538C1.82516 10.5915 2.39115 9.18323 3.41303 8.13713C3.58905 8.49423 3.79772 8.83429 4.03637 9.15296C4.21067 9.38816 4.44998 9.56722 4.72481 9.66806C4.99964 9.7689 5.29797 9.78711 5.58303 9.72046C5.87302 9.6559 6.13828 9.50918 6.34709 9.29786C6.55591 9.08653 6.69944 8.81953 6.76053 8.52879C7.10946 6.6135 7.86413 4.79502 8.9739 3.19546C9.853 4.02879 10.7239 4.76629 11.5097 5.43379C14.1197 7.65046 16.0097 9.25213 16.0097 12.0588C16.0117 13.1377 15.7659 14.2026 15.2911 15.1714C14.8163 16.1402 14.1261 16.9869 13.2722 17.6463Z" fill="#3BB77E"/>
</svg>
